# xmcd
#
# Track frame offsets:
#	150
#	11777
#	24010
#	32660
#	42640
#	54692
#	66130
#	80312
#	91097
#	102550
#	114452
#	127297
#	139357
#	149792
#	162905
#
# Disc length: 2349 seconds
#
# Revision: 2
# Processed by: cddbd v1.5.2PL0 Copyright (c) Steve Scherf et al.
# Submitted via: EasyCDDAExtractor 16.0.0.1
#
DISCID=d8092b0f
DTITLE=Various Artist - Rhytm And Blues
DYEAR=1990
DGENRE=Rhythm - Blues
TTITLE0=Ray Charles - Lonely Avenue
TTITLE1=Dinah Washington - Dream
TTITLE2=Joe Turner - Love Roller Coaster
TTITLE3=La Vern Baker - Jim Dandy
TTITLE4=Earl Bostic - Where Or When ?
TTITLE5=Ray Charles - Hallejujah, I Love Her So
TTITLE6=Tina Turner - Looking For My Mind
TTITLE7=T-Bone Walker - Lonesome Woman Blues
TTITLE8=Ruth Brown - Wild Wild Young Man
TTITLE9=Louis Jordan - If I Had Any Sense I'd Go Back Home
TTITLE10=Ray Charles - Greenbacks
TTITLE11=Joe Tyrner - Honey Hush
TTITLE12=Wyonnie Harris - Shake That Thing
TTITLE13=Ray Charles - I Got A Woman
TTITLE14=Roy Brown - I've Got The Last Laughn Now
EXTD=
EXTT0=
EXTT1=
EXTT2=
EXTT3=
EXTT4=
EXTT5=
EXTT6=
EXTT7=
EXTT8=
EXTT9=
EXTT10=
EXTT11=
EXTT12=
EXTT13=
EXTT14=
PLAYORDER=
